<svg width="19" height="10" viewBox="0 0 19 10" fill="none" xmlns="http://www.w3.org/2000/svg">
    <path d="M0 5.0809C0 4.77907 0.285418 4.53443 0.637557 4.53443L15.9908 4.53443L11.969 1.09035C11.8467 0.985497 11.7837 0.8457 11.7837 0.705904C11.7837 0.566107 11.8467 0.426311 11.969 0.321463C12.2174 0.10859 12.6214 0.10859 12.8698 0.321463L17.9702 4.69646C18.2075 4.8998 18.2075 5.262 17.9702 5.46852L12.8661 9.84035C12.6177 10.0532 12.2137 10.0532 11.9653 9.84035C11.717 9.62747 11.717 9.28116 11.9653 9.06829L15.9834 5.62421L0.633851 5.62421C0.281711 5.62738 0 5.38274 0 5.0809Z" fill="white"/>
</svg>
