<svg width="7" height="12" viewBox="0 0 7 12" fill="none" xmlns="http://www.w3.org/2000/svg">
    <path d="M0.170878 5.61415L6.00422 0.159759C6.232 -0.053259 6.60136 -0.053259 6.82918 0.159795C7.05695 0.372813 7.05695 0.718158 6.82914 0.931176L2.18945 5.26948C1.76676 5.66471 1.76676 6.3351 2.18943 6.73033L6.82918 11.0689C7.05695 11.2819 7.05695 11.6272 6.82914 11.8403C6.71527 11.9468 6.56598 12 6.41668 12C6.26739 12 6.11809 11.9468 6.00419 11.8402L0.170878 6.38553C0.0614444 6.28324 -4.16504e-07 6.14452 -4.2915e-07 5.99986C-4.41796e-07 5.85521 0.0614443 5.71644 0.170878 5.61415Z" fill="#666666"/>
</svg>
