<svg width="21" height="21" viewBox="0 0 21 21" fill="none" xmlns="http://www.w3.org/2000/svg">
    <path d="M10.5418 4.99991C10.8166 5.06231 11.0124 5.23869 11.2046 5.42937C13.092 7.29963 14.9813 9.16745 16.8727 11.0328C17.1457 11.3019 17.2692 11.6111 17.1295 11.9792C17.0766 12.1125 16.9962 12.2335 16.8935 12.3344C14.9542 14.2572 13.0123 16.1774 11.0678 18.0951C10.6702 18.4873 10.1558 18.4841 9.75579 18.0923C9.51778 17.8599 9.28072 17.6258 9.04459 17.3899C8.62761 16.9765 8.6262 16.477 9.04459 16.0653C9.99497 15.1253 10.9458 14.1855 11.8971 13.246C11.9324 13.2111 11.9631 13.1763 12.022 13.1166L11.8266 13.1166C9.54248 13.1166 7.25826 13.1166 4.97392 13.1166C4.65643 13.1166 4.37033 13.0469 4.18794 12.775C4.09904 12.6433 4.02496 12.4763 4.01614 12.3219C3.99286 11.9036 3.99815 11.4853 4.01085 11.067C4.02355 10.6487 4.36821 10.3134 4.78695 10.2795C4.86597 10.2729 4.94535 10.2705 5.02437 10.2705C7.29107 10.2705 9.55764 10.2705 11.8241 10.2705L11.9913 10.2705C12.0047 10.2517 12.0181 10.2328 12.0312 10.2137C11.9857 10.1875 11.9321 10.1697 11.8957 10.1342C10.9425 9.19696 9.99003 8.25834 9.03824 7.31833C8.71122 6.9952 8.6001 6.56609 8.86186 6.2447C9.19558 5.83442 9.60586 5.48409 9.99074 5.11669C10.0553 5.05534 10.1632 5.03861 10.2507 5.00096L10.5418 4.99991Z" fill="white"/>
</svg>
