<svg width="16" height="16" viewBox="0 0 16 16" fill="none" xmlns="http://www.w3.org/2000/svg">
    <path d="M6.46399 7.0921C6.50799 6.8321 6.58799 6.6001 6.70399 6.3961C6.81999 6.1921 6.97999 6.0281 7.17599 5.90409C7.36399 5.78809 7.59999 5.72409 7.89199 5.72009C8.08399 5.72409 8.25999 5.75609 8.41199 5.82409C8.57599 5.8961 8.71199 5.9921 8.82799 6.1121C8.94399 6.2321 9.03199 6.3761 9.09599 6.5361C9.15999 6.6961 9.19599 6.8681 9.20399 7.0481H10.636C10.624 6.6721 10.548 6.3281 10.416 6.0161C10.284 5.70409 10.092 5.43609 9.85199 5.20809C9.61199 4.98009 9.32399 4.80809 8.98799 4.68409C8.65199 4.56009 8.27999 4.49609 7.87199 4.49609C7.35199 4.49609 6.89999 4.58409 6.51599 4.76409C6.13199 4.94409 5.81199 5.18809 5.55599 5.50009C5.29999 5.8121 5.10799 6.1721 4.98399 6.5841C4.85999 6.9961 4.79999 7.4321 4.79999 7.8921V8.1121C4.79999 8.5761 4.86399 9.0121 4.98799 9.4241C5.11199 9.8361 5.30399 10.1961 5.55999 10.5041C5.81599 10.8121 6.13599 11.0561 6.52399 11.2361C6.91199 11.4161 7.36399 11.5041 7.88399 11.5041C8.25999 11.5041 8.61199 11.4441 8.93999 11.3201C9.26799 11.1961 9.55599 11.0281 9.80399 10.8121C10.052 10.5961 10.252 10.3481 10.396 10.0601C10.54 9.7721 10.624 9.4681 10.636 9.1401H9.20399C9.19599 9.3081 9.15599 9.4601 9.08399 9.6041C9.01199 9.7481 8.91599 9.8681 8.79599 9.9681C8.67599 10.0681 8.53599 10.1481 8.37599 10.2041C8.22399 10.2561 8.06399 10.2841 7.89199 10.2841C7.60399 10.2761 7.36799 10.2161 7.17599 10.0961C6.97599 9.9681 6.81599 9.8041 6.69999 9.6001C6.58399 9.3961 6.50399 9.1641 6.45999 8.9001C6.41599 8.6361 6.39999 8.3801 6.39999 8.1121V7.8921C6.39999 7.6201 6.41999 7.3521 6.46399 7.0921Z" fill="white"/>
    <path d="M8 0C3.58 0 0 3.58 0 8C0 12.42 3.58 16 8 16C12.42 16 16 12.42 16 8C16 3.58 12.42 0 8 0ZM8 14.4C4.472 14.4 1.6 11.528 1.6 8C1.6 4.472 4.472 1.6 8 1.6C11.528 1.6 14.4 4.472 14.4 8C14.4 11.528 11.528 14.4 8 14.4Z" fill="white"/>
</svg>
