<svg width="12" height="8" viewBox="0 0 12 8" fill="none" xmlns="http://www.w3.org/2000/svg">
    <path d="M11.2557 1.00416C11.2557 0.992196 11.2638 0.980234 11.2633 0.96875L8.05078 4.06408L11.2595 7.06229C11.2595 7.04075 11.2557 7.01922 11.2557 6.99721V1.00416Z" fill="white"/>
    <path d="M7.56057 4.54004L6.24904 5.80181C6.18581 5.86267 6.10166 5.89698 6.01391 5.8977C5.92615 5.89841 5.84146 5.86546 5.77725 5.80564L4.46907 4.58693L1.24023 7.69997C1.32058 7.7303 1.40557 7.74648 1.49144 7.74782H10.5315C10.6583 7.74594 10.7825 7.71168 10.8923 7.64829L7.56057 4.54004Z" fill="white"/>
    <path d="M6.00722 5.08272L10.9098 0.360052C10.7958 0.289967 10.6651 0.251945 10.5313 0.25H1.49078C1.3169 0.251867 1.14916 0.314497 1.0166 0.42704L6.00722 5.08272Z" fill="white"/>
    <path d="M0.736328 1.11938V6.99569C0.738497 7.06176 0.749439 7.12725 0.768865 7.19043L3.95846 4.11902L0.736328 1.11938Z" fill="white"/>
</svg>
