<svg width="21" height="15" viewBox="0 0 21 15" fill="none" xmlns="http://www.w3.org/2000/svg">
    <path d="M13.9204 7.32673L21 11.8024V2.66211L13.9204 7.32673Z" fill="#000E43"/>
    <path d="M0 2.66211V11.8024L7.07963 7.32673L0 2.66211Z" fill="#000E43"/>
    <path d="M19.6877 0H1.31268C0.657738 0 0.137988 0.48825 0.0395508 1.11694L10.5002 8.00887L20.9608 1.11694C20.8624 0.48825 20.3426 0 19.6877 0Z" fill="#000E43"/>
    <path d="M12.7181 8.11948L10.8609 9.34273C10.7507 9.41491 10.626 9.45035 10.5 9.45035C10.374 9.45035 10.2493 9.41491 10.1391 9.34273L8.28187 8.11816L0.0419922 13.3301C0.143055 13.9535 0.66018 14.4379 1.31249 14.4379H19.6875C20.3398 14.4379 20.8569 13.9535 20.958 13.3301L12.7181 8.11948Z" fill="#000E43"/>
</svg>
