<svg width="39" height="39" viewBox="0 0 39 39" fill="none" xmlns="http://www.w3.org/2000/svg">
    <path d="M19.3424 0C8.66001 0 0 8.69622 0 19.4233C0 29.0442 6.97333 37.012 16.1165 38.5549V23.4755H11.4505V18.0491H16.1165V14.0478C16.1165 9.40522 18.9403 6.87528 23.0651 6.87528C25.0407 6.87528 26.7385 7.0231 27.2313 7.08821V11.941L24.3704 11.9424C22.1277 11.9424 21.6953 13.0124 21.6953 14.5831V18.0463H27.0467L26.3488 23.4727H21.6953V38.6846C31.2653 37.515 38.6846 29.3443 38.6846 19.4177C38.6846 8.69622 30.0246 0 19.3424 0Z" fill="#02B470"/>
</svg>
