<svg width="19" height="16" viewBox="0 0 19 16" fill="none" xmlns="http://www.w3.org/2000/svg">
    <path d="M18.4216 0.816501C18.5094 0.408024 18.1089 0.0636019 17.7183 0.212663L0.773139 6.68135C0.5692 6.75922 0.434307 6.95469 0.433885 7.17297C0.433463 7.39129 0.567583 7.58728 0.771241 7.66593L5.53146 9.5044V15.295C5.53146 15.5393 5.69918 15.7516 5.93684 15.8081C6.17291 15.8642 6.41907 15.7519 6.52974 15.5323L8.49851 11.6255L13.3031 15.1912C13.5953 15.4081 14.0154 15.2701 14.1217 14.9215C18.6076 0.213824 18.4137 0.85345 18.4216 0.816501ZM14.2388 2.66985L5.98405 8.54858L2.43232 7.17687L14.2388 2.66985ZM6.58613 9.41458L13.7814 4.29036C7.58997 10.822 7.91334 10.4782 7.88634 10.5145C7.84623 10.5685 7.95612 10.3582 6.58613 13.0768V9.41458ZM13.3311 13.8986L9.10196 10.76L16.7488 2.69305L13.3311 13.8986Z" fill="white"/>
</svg>
