<svg width="14" height="12" viewBox="0 0 14 12" fill="none" xmlns="http://www.w3.org/2000/svg">
    <path d="M10.2812 0.126465C9.52156 0.126465 8.82506 0.340721 8.21114 0.763297C7.62256 1.16842 7.2307 1.68442 7 2.05964C6.7693 1.6844 6.37744 1.16842 5.78886 0.763297C5.17494 0.340721 4.47844 0.126465 3.71875 0.126465C1.59873 0.126465 0 1.6698 0 3.71641C0 5.92746 1.99454 7.44022 5.014 9.73034C5.52675 10.1193 6.10794 10.5601 6.71202 11.0302C6.79164 11.0923 6.89391 11.1265 7 11.1265C7.10609 11.1265 7.20836 11.0923 7.28798 11.0303C7.89212 10.56 8.47328 10.1192 8.98633 9.7301C12.0055 7.44022 14 5.92746 14 3.71641C14 1.6698 12.4013 0.126465 10.2812 0.126465Z" fill="#777F86"/>
</svg>
