<svg width="16" height="17" viewBox="0 0 16 17" fill="none" xmlns="http://www.w3.org/2000/svg">
    <path d="M8.00058 0.828613C6.01458 0.828476 4.09953 1.56705 2.62792 2.90067C1.15631 4.23429 0.233354 6.06761 0.0385831 8.04403C-0.156187 10.0204 0.391149 11.9987 1.57413 13.5939C2.75711 15.1891 4.49116 16.2873 6.43898 16.6748C8.3868 17.0623 10.4091 16.7115 12.1126 15.6906C13.8161 14.6696 15.0789 13.0515 15.6555 11.1511C16.232 9.25061 16.0811 7.20364 15.232 5.4083C14.3829 3.61297 12.8964 2.19764 11.0616 1.43761C10.0911 1.03562 9.051 0.828686 8.00058 0.828613ZM8.00058 3.22861C8.55575 3.22997 9.09329 3.42377 9.52162 3.77698C9.94994 4.13019 10.2426 4.62098 10.3496 5.16573C10.4567 5.71049 10.3716 6.27552 10.1088 6.76457C9.84605 7.25362 9.42185 7.63644 8.90849 7.84782C8.39513 8.05921 7.82436 8.08608 7.29341 7.92385C6.76246 7.76163 6.30417 7.42035 5.99662 6.95815C5.68906 6.49595 5.55126 5.94141 5.60668 5.38901C5.6621 4.8366 5.90733 4.3205 6.30058 3.92861C6.52403 3.70593 6.78919 3.52949 7.08089 3.40938C7.37259 3.28926 7.68511 3.22784 8.00058 3.22861ZM8.00058 14.5886C7.05006 14.5886 6.11432 14.3534 5.2768 13.9039C4.43927 13.4544 3.726 12.8047 3.20057 12.0126C3.22457 10.4206 6.40058 9.5486 8.00058 9.5486C9.60058 9.5486 12.7766 10.4206 12.8006 12.0126C12.2752 12.8047 11.5619 13.4544 10.7244 13.9039C9.88683 14.3534 8.95109 14.5886 8.00058 14.5886Z" fill="#02B470"/>
</svg>
