<svg width="23" height="23" viewBox="0 0 23 23" fill="none" xmlns="http://www.w3.org/2000/svg">
    <g clip-path="url(#clip0_397_1901)">
        <path d="M16.2692 3.9375H5.88462C4.811 3.9375 3.9375 4.811 3.9375 5.88462V16.2692C3.9375 17.3428 4.811 18.2163 5.88462 18.2163H16.2692C17.3428 18.2163 18.2163 17.3428 18.2163 16.2692V5.88462C18.2163 4.811 17.3428 3.9375 16.2692 3.9375ZM11.0769 15.6202C8.57204 15.6202 6.53365 13.5818 6.53365 11.0769C6.53365 8.57204 8.57204 6.53365 11.0769 6.53365C13.5818 6.53365 15.6202 8.57204 15.6202 11.0769C15.6202 13.5818 13.5818 15.6202 11.0769 15.6202ZM15.6202 7.83173C14.9046 7.83173 14.3221 7.24929 14.3221 6.53365C14.3221 5.81802 14.9046 5.23558 15.6202 5.23558C16.3358 5.23558 16.9183 5.81802 16.9183 6.53365C16.9183 7.24929 16.3358 7.83173 15.6202 7.83173Z" fill="white"/>
        <path d="M11.0772 7.83179C9.28797 7.83179 7.83203 9.28773 7.83203 11.077C7.83203 12.8662 9.28797 14.3222 11.0772 14.3222C12.8665 14.3222 14.3224 12.8662 14.3224 11.077C14.3224 9.28773 12.8665 7.83179 11.0772 7.83179Z" fill="white"/>
        <path d="M18.8654 0H3.28846C1.49921 0 0 1.49921 0 3.28846V18.8654C0 20.6546 1.49921 22.1538 3.28846 22.1538H18.8654C20.6546 22.1538 22.1538 20.6546 22.1538 18.8654V3.28846C22.1538 1.49921 20.6546 0 18.8654 0ZM19.5144 16.2692C19.5144 18.0585 18.0585 19.5144 16.2692 19.5144H5.88462C4.09537 19.5144 2.63942 18.0585 2.63942 16.2692V5.88462C2.63942 4.09537 4.09537 2.63942 5.88462 2.63942H16.2692C18.0585 2.63942 19.5144 4.09537 19.5144 5.88462V16.2692Z" fill="white"/>
    </g>
    <defs>
        <clipPath id="clip0_397_1901">
            <rect width="22.1538" height="22.1538" fill="white"/>
        </clipPath>
    </defs>
</svg>
