<svg width="36" height="37" viewBox="0 0 36 37" fill="none" xmlns="http://www.w3.org/2000/svg">
    <g clip-path="url(#clip0_144_4534)">
        <path d="M26.5147 7.32251H9.77617C8.04565 7.32251 6.6377 8.73047 6.6377 10.461V27.1995C6.6377 28.9301 8.04565 30.338 9.77617 30.338H26.5147C28.2452 30.338 29.6532 28.9301 29.6532 27.1995V10.461C29.6532 8.73047 28.2452 7.32251 26.5147 7.32251ZM18.1454 26.1534C14.1079 26.1534 10.8223 22.8678 10.8223 18.8303C10.8223 14.7927 14.1079 11.5071 18.1454 11.5071C22.183 11.5071 25.4686 14.7927 25.4686 18.8303C25.4686 22.8678 22.183 26.1534 18.1454 26.1534ZM25.4686 13.5995C24.3151 13.5995 23.3762 12.6606 23.3762 11.5071C23.3762 10.3536 24.3151 9.41483 25.4686 9.41483C26.6221 9.41483 27.5609 10.3536 27.5609 11.5071C27.5609 12.6606 26.6221 13.5995 25.4686 13.5995Z" fill="#02B470"/>
        <path d="M18.1458 13.5994C15.2618 13.5994 12.915 15.9461 12.915 18.8302C12.915 21.7142 15.2618 24.061 18.1458 24.061C21.0299 24.061 23.3766 21.7142 23.3766 18.8302C23.3766 15.9461 21.0299 13.5994 18.1458 13.5994Z" fill="#02B470"/>
        <path d="M30.6994 0.97583H5.59155C2.70753 0.97583 0.291016 3.39235 0.291016 6.27637V31.3842C0.291016 34.2682 2.70753 36.6847 5.59155 36.6847H30.6994C33.5834 36.6847 35.9999 34.2682 35.9999 31.3842V6.27637C35.9999 3.39235 33.5834 0.97583 30.6994 0.97583ZM31.7455 27.1996C31.7455 30.0836 29.3988 32.4303 26.5147 32.4303H9.77619C6.89217 32.4303 4.5454 30.0836 4.5454 27.1996V10.461C4.5454 7.57698 6.89217 5.23021 9.77619 5.23021H26.5147C29.3988 5.23021 31.7455 7.57698 31.7455 10.461V27.1996Z" fill="#02B470"/>
    </g>
    <defs>
        <clipPath id="clip0_144_4534">
            <rect width="35.7089" height="35.7089" fill="white" transform="translate(0.291016 0.97583)"/>
        </clipPath>
    </defs>
</svg>
