<svg width="8" height="11" viewBox="0 0 8 11" fill="none" xmlns="http://www.w3.org/2000/svg">
    <path d="M3.99973 2.11131e-07C3.28886 -0.000234695 2.59169 0.195554 1.98488 0.565838C1.37806 0.936123 0.885103 1.46656 0.560199 2.09884C0.235295 2.73111 0.0910295 3.44074 0.143264 4.14968C0.195498 4.85863 0.44221 5.53944 0.856273 6.11727L3.70355 10.5605C3.73531 10.6102 3.77907 10.6511 3.83078 10.6794C3.8825 10.7077 3.9405 10.7225 3.99945 10.7225C4.05841 10.7225 4.11641 10.7077 4.16813 10.6794C4.21984 10.6511 4.2636 10.6102 4.29536 10.5605L7.15518 6.102C7.56496 5.52325 7.80771 4.84297 7.85691 4.13554C7.9061 3.42812 7.75983 2.72079 7.4341 2.09089C7.10837 1.461 6.61572 0.932789 6.01001 0.564026C5.4043 0.195263 4.70886 0.000142527 3.99973 2.11131e-07ZM3.99973 5.62527C3.65203 5.62527 3.31214 5.52217 3.02303 5.329C2.73393 5.13582 2.50861 4.86126 2.37555 4.54003C2.24249 4.2188 2.20767 3.86532 2.27551 3.5243C2.34334 3.18329 2.51077 2.87004 2.75663 2.62418C3.00249 2.37832 3.31574 2.21089 3.65676 2.14305C3.99778 2.07522 4.35125 2.11003 4.67248 2.24309C4.99372 2.37615 5.26828 2.60148 5.46145 2.89058C5.65462 3.17968 5.75773 3.51957 5.75773 3.86727C5.75729 4.33339 5.57194 4.78029 5.24234 5.10989C4.91275 5.43948 4.46584 5.62484 3.99973 5.62527Z" fill="white"/>
</svg>
