<svg width="14" height="13" viewBox="0 0 14 13" fill="none" xmlns="http://www.w3.org/2000/svg">
    <path d="M13.941 6.01427C13.9009 5.93835 13.842 5.86926 13.7678 5.81089L11.3673 3.94336C11.2936 3.88361 11.2052 3.8359 11.1075 3.80304C11.0098 3.77018 10.9047 3.75282 10.7982 3.75199C10.6918 3.75115 10.5862 3.76685 10.4877 3.79816C10.3891 3.82948 10.2996 3.87578 10.2243 3.93436C10.1491 3.99294 10.0896 4.06262 10.0493 4.13931C10.0091 4.21601 9.98892 4.29819 9.99 4.38103C9.99107 4.46387 10.0134 4.54571 10.0556 4.62175C10.0978 4.6978 10.1591 4.76653 10.2359 4.82391L11.27 5.62879H6.80018C6.58796 5.62879 6.38443 5.6944 6.23437 5.81119C6.0843 5.92798 6 6.08639 6 6.25156C6 6.41673 6.0843 6.57513 6.23437 6.69193C6.38443 6.80872 6.58796 6.87433 6.80018 6.87433H11.27L10.2349 7.67999C10.1581 7.73738 10.0968 7.8061 10.0546 7.88215C10.0124 7.9582 9.99006 8.04004 9.98899 8.12288C9.98791 8.20572 10.0081 8.28789 10.0483 8.36459C10.0886 8.44129 10.148 8.51097 10.2233 8.56955C10.2986 8.62813 10.3881 8.67443 10.4867 8.70574C10.5852 8.73706 10.6908 8.75276 10.7972 8.75192C10.9037 8.75108 11.0088 8.73373 11.1065 8.70086C11.2042 8.668 11.2925 8.6203 11.3663 8.56055L13.7648 6.69302C13.8394 6.63489 13.8983 6.56574 13.938 6.48963C14.0196 6.33771 14.0207 6.16682 13.941 6.01427Z" fill="#777F86"/>
    <path d="M8.49611 7.7523C8.35475 7.76167 8.2233 7.81945 8.13028 7.91313C8.03725 8.0068 7.99015 8.12881 7.99918 8.2527V10.7529H5.99755V2.75354C6.00166 2.65141 5.96969 2.55065 5.90602 2.465C5.84235 2.37934 5.75007 2.31296 5.64175 2.2749L3.90647 1.75275H7.9962V4.25213C7.98724 4.31424 7.99347 4.37732 8.0145 4.43717C8.03552 4.49701 8.07085 4.55225 8.11814 4.59922C8.16542 4.64619 8.22358 4.6838 8.28875 4.70957C8.35392 4.73534 8.42461 4.74866 8.49611 4.74866C8.56762 4.74866 8.6383 4.73534 8.70347 4.70957C8.76864 4.6838 8.8268 4.64619 8.87409 4.59922C8.92138 4.55225 8.9567 4.49701 8.97773 4.43717C8.99875 4.37732 9.00499 4.31424 8.99602 4.25213V1.25235C9.00503 1.12805 8.95753 1.00567 8.86387 0.911918C8.77021 0.81817 8.63801 0.760666 8.49611 0.751953H0.497537C0.481426 0.754283 0.465494 0.75748 0.449832 0.761526C0.426978 0.764047 0.404382 0.76812 0.38225 0.77371C0.330272 0.788021 0.281515 0.810103 0.23814 0.838979C0.227208 0.838979 0.213294 0.838979 0.19938 0.851162C0.185466 0.863346 0.19938 0.859865 0.193417 0.862476C0.137151 0.906764 0.0918287 0.960665 0.0602395 1.02086C0.0532825 1.03392 0.0522886 1.04871 0.0463255 1.06263C0.0279284 1.10002 0.0145863 1.13915 0.00657113 1.17925C0.00555521 1.19374 0.00555521 1.20827 0.00657113 1.22276C0.00756499 1.23321 0.000607977 1.24191 0.000607977 1.25235V11.2525C-0.00520448 11.3613 0.0307935 11.4687 0.102854 11.5575C0.174914 11.6463 0.27888 11.7114 0.398152 11.7424L5.39527 12.7424C5.42783 12.7491 5.46121 12.7523 5.49466 12.7519C5.61298 12.7511 5.72646 12.7107 5.8117 12.6388C5.87048 12.5886 5.91699 12.5285 5.94843 12.462C5.97986 12.3956 5.99556 12.3243 5.99457 12.2524V11.752H8.49611C8.63748 11.7426 8.76893 11.6848 8.86195 11.5912C8.95498 11.4975 9.00208 11.3755 8.99304 11.2516V8.2527C9.00208 8.12881 8.95498 8.0068 8.86195 7.91313C8.76893 7.81945 8.63748 7.76167 8.49611 7.7523Z" fill="#777F86"/>
</svg>
