<svg width="67" height="47" viewBox="0 0 67 47" fill="none" xmlns="http://www.w3.org/2000/svg">
    <path d="M51.0908 19.5098C50.0737 19.5098 50.0869 19.5098 49.8977 20.4976C49.2143 24.0654 46.0053 26.7453 42.1018 26.5506C38.661 26.3783 35.5599 23.4925 35.1856 20.0032C35.1002 19.2132 34.9425 19.0562 34.1482 18.9991C33.9284 18.9838 33.7078 18.9838 33.4881 18.9991C32.35 19.0695 32.1659 19.2366 31.9909 20.3426C31.4234 23.9186 28.2236 26.5689 24.5194 26.5475C20.9322 26.5231 17.8066 23.7952 17.2808 20.258C17.1496 19.3661 17.3154 19.5302 16.4397 19.5108C16.1346 19.5037 15.8294 19.5017 15.5243 19.5108C15.2426 19.521 15.0341 19.5108 15.0412 19.1194C15.0473 18.7718 15.148 18.623 15.5091 18.6423C15.9159 18.6637 16.3227 18.627 16.7296 18.6525C17.0682 18.6739 17.1933 18.5618 17.2381 18.2132C17.4659 16.5139 18.1341 15.0134 19.3841 13.8177C21.5424 11.7504 24.0922 11.0817 26.9258 12.0052C29.7788 12.9349 31.4549 14.9961 31.9919 17.9553C32.0642 18.3488 32.1587 18.4313 32.5361 18.3131C33.2572 18.0878 34.0027 18.0215 34.7381 18.2417C35.0768 18.3437 35.1622 18.2601 35.2242 17.9237C35.7328 15.1551 37.2788 13.1938 39.8866 12.1398C44.1837 10.4008 49.1034 13.1653 49.9069 17.7392C50.0676 18.6474 50.0676 18.6474 50.9748 18.6474C51.2118 18.6474 51.4498 18.6607 51.6868 18.6474C52.0265 18.623 52.1719 18.7392 52.173 19.1072C52.174 19.4752 52.0031 19.5353 51.7041 19.5149C51.4986 19.4976 51.2942 19.5098 51.0908 19.5098ZM42.6093 12.4762C41.7398 12.4707 40.8778 12.6376 40.0729 12.9673C39.2681 13.297 38.5362 13.783 37.9195 14.3973C37.3027 15.0116 36.8133 15.7421 36.4794 16.5468C36.1455 17.3514 35.9737 18.2143 35.9738 19.0858C35.9738 22.7208 38.9427 25.7229 42.5473 25.728C46.1864 25.7331 49.1919 22.7361 49.197 19.1021C49.1924 17.3502 48.4977 15.6711 47.2639 14.4302C46.0301 13.1892 44.3572 12.4869 42.6093 12.4762ZM31.2322 19.1062C31.2371 17.3557 30.5499 15.6745 29.321 14.4306C28.0921 13.1868 26.4216 12.4815 24.675 12.4691C21.342 12.4303 18.0538 15.0878 18.0253 19.0756C17.9989 22.7402 21.0125 25.7269 24.6445 25.728C28.2562 25.729 31.2322 22.7422 31.2322 19.1062Z" fill="#00BA74"/>
    <path d="M24.8499 0C28.3161 0.0326197 31.4833 1.01937 34.3139 3.04892C34.9292 3.49031 35.1652 4.07848 35.0004 4.71763C34.7278 5.77369 33.5501 6.17532 32.6032 5.5056C31.2169 4.52599 29.7218 3.78389 28.067 3.4057C23.7708 2.42405 19.8692 3.25382 16.4061 6.01834C15.6209 6.64627 14.7238 6.61059 14.1532 5.9113C13.5826 5.21202 13.7464 4.30784 14.5194 3.67889C17.5299 1.23955 20.9789 0.0326197 24.8499 0Z" fill="#FD6643"/>
    <path d="M24.8713 5.95117C27.2431 5.97462 29.441 6.65046 31.402 8.06126C32.1638 8.60968 32.3458 9.48837 31.8658 10.1968C31.3857 10.9053 30.4724 11.0786 29.7146 10.5261C26.7142 8.33751 22.3794 8.41906 19.4217 10.8941C18.7098 11.4884 17.8056 11.362 17.2604 10.6719C16.7458 10.0195 16.8638 9.12446 17.5655 8.5475C19.6821 6.81967 22.1089 5.96238 24.8713 5.95117Z" fill="#FD6643"/>
    <path d="M17.649 37.9255C18.8695 37.9255 20.09 37.9316 21.3105 37.9255C21.7173 37.9255 21.9299 38.0611 21.9472 38.5116C22.0896 42.3312 19.5458 45.6309 15.8945 46.3444C11.9055 47.1202 8.12599 45.1212 6.91261 41.4515C5.01168 35.6961 9.49296 30.9948 14.793 31.427C17.6164 31.6574 19.7971 33.0019 21.1386 35.5646C21.5363 36.3251 21.3898 36.5432 20.5527 36.5442C19.6374 36.5442 18.722 36.5351 17.8066 36.5493C17.6727 36.5613 17.538 36.536 17.4175 36.4763C17.2969 36.4166 17.1951 36.3248 17.1231 36.2109C16.1203 34.7654 14.6984 34.4015 13.0914 34.8225C11.4844 35.2435 10.5853 36.4168 10.2731 38.0305C10.1492 38.7012 10.1672 39.3906 10.326 40.0539C10.9138 42.6513 13.4942 43.951 15.9291 42.8745C16.5135 42.632 16.9991 42.1988 17.3072 41.6451C17.5595 41.1874 17.4089 40.9214 16.8923 40.9143C15.927 40.901 14.9598 40.9143 13.9956 40.9081C13.4057 40.9081 13.3111 40.8123 13.306 40.2343C13.306 39.6737 13.3203 39.113 13.3009 38.5534C13.2836 38.0886 13.4911 37.9163 13.9397 37.9214C15.1764 37.9336 16.4122 37.9255 17.649 37.9255Z" fill="#FCAF3B"/>
    <path d="M55.8385 36.8642C55.8385 35.4044 55.8385 33.9433 55.8385 32.4809C55.8385 31.7194 55.8985 31.6562 56.6359 31.6552C57.3472 31.6552 58.0591 31.6552 58.7718 31.6552C59.4929 31.6552 59.5631 31.7255 59.5641 32.435C59.5641 35.1166 59.5641 37.7993 59.5641 40.4829C59.5641 40.9926 59.5895 41.5023 59.7522 41.9916C60.033 42.8397 60.6076 43.2281 61.5301 43.1985C62.4292 43.1689 62.9225 42.7612 63.1574 41.8733C63.2795 41.4054 63.2663 40.9294 63.2673 40.4554C63.2714 37.7894 63.2714 35.1238 63.2673 32.4585C63.2673 31.7204 63.3395 31.6521 64.0871 31.6511C64.8346 31.6501 65.5791 31.6644 66.3247 31.646C66.7925 31.6348 67.002 31.805 67 32.2984C66.9858 35.2189 67 38.1394 66.9817 41.065C66.9685 42.96 66.3023 44.5308 64.676 45.6297C62.7567 46.9273 58.6823 46.8804 56.9339 44.5186C56.2287 43.5746 55.8486 42.4266 55.8507 41.2474C55.8334 39.7867 55.8507 38.3269 55.8507 36.8642H55.8385Z" fill="#FCAF3B"/>
    <path d="M41.3724 46.2082C40.932 46.2082 40.4906 46.1868 40.0502 46.2143C39.6373 46.2388 39.4268 46.0634 39.321 45.6761C39.2152 45.2887 39.0626 44.9391 38.9487 44.567C38.8572 44.2673 38.6843 44.1165 38.3608 44.1185C36.9722 44.1246 35.5822 44.1246 34.1908 44.1185C34.0632 44.1075 33.9359 44.1425 33.8319 44.2173C33.7278 44.2921 33.6538 44.4016 33.6233 44.5262C33.487 44.9279 33.3263 45.3203 33.1941 45.724C33.0852 46.0553 32.9001 46.2225 32.5279 46.2143C31.6125 46.196 30.6971 46.2143 29.7817 46.2062C29.26 46.2 29.1054 45.9748 29.2986 45.4926C31.0846 41.0319 32.8693 36.5728 34.6526 32.1155C34.7858 31.7811 34.9902 31.6445 35.3442 31.6547C35.9544 31.671 36.5647 31.6812 37.1749 31.6547C37.6184 31.6323 37.8452 31.8097 38.0069 32.2194C39.4891 35.9931 40.9809 39.7648 42.4821 43.5344C42.7384 44.1807 43.0038 44.8239 43.252 45.4712C43.4503 45.989 43.3029 46.2021 42.7435 46.2123C42.2878 46.2143 41.8301 46.2082 41.3724 46.2082ZM36.3602 36.2969C36.2728 36.3927 36.225 36.4223 36.2117 36.462C35.7978 37.8209 35.3808 39.1776 34.9811 40.5395C34.8631 40.9422 35.0482 41.1511 35.4744 41.1511C36.0307 41.1511 36.5932 41.1593 37.1454 41.1511C37.6143 41.1409 37.7557 40.9605 37.6235 40.5059C37.3987 39.7087 37.1536 38.9167 36.9115 38.1236C36.7376 37.5263 36.5555 36.9381 36.3602 36.2969Z" fill="#FCAF3B"/>
    <path d="M52.1363 35.9224C51.763 35.9224 51.3887 35.901 51.0175 35.9285C50.5822 35.9601 50.3381 35.8153 50.1957 35.3729C49.9923 34.7287 49.5203 34.4555 48.8674 34.5075C48.3832 34.5462 47.9713 34.7113 47.8106 35.2292C47.6448 35.7674 47.7872 36.2384 48.2388 36.586C48.8786 37.0763 49.6353 37.3444 50.3584 37.6746C51.0117 37.9574 51.6442 38.2861 52.2512 38.6583C53.788 39.6349 54.3301 41.0487 54.082 42.8102C53.844 44.5095 52.8706 45.6308 51.2687 46.1527C49.7917 46.6482 48.1912 46.6306 46.7254 46.1028C44.9445 45.4789 43.8643 43.9478 43.8369 42.0753C43.8277 41.5054 43.9386 41.377 44.5041 41.3719C45.2842 41.3658 46.0633 41.3841 46.8434 41.3648C47.2868 41.3535 47.5147 41.4942 47.6021 41.9692C47.7821 42.9325 48.3619 43.4127 49.1898 43.3586C49.7146 43.325 50.1469 43.1344 50.3411 42.5951C50.5598 41.9835 50.4327 41.3953 49.9943 41.0059C49.6841 40.7317 49.2996 40.588 48.9304 40.4188C47.9917 39.9886 47.0092 39.6543 46.1253 39.1058C43.251 37.3199 43.366 33.6899 46.347 32.0722C48.4951 30.9081 51.3684 31.2567 52.9072 32.8663C53.5683 33.5584 53.8694 34.4106 53.9792 35.3434C54.024 35.7236 53.846 35.9203 53.4585 35.9193C53.0171 35.9203 52.5767 35.9224 52.1363 35.9224Z" fill="#FCAF3B"/>
    <path d="M23.8288 38.9358C23.8288 36.7611 23.8288 34.5865 23.8288 32.4118C23.8288 31.7401 23.9142 31.6585 24.5987 31.6565C25.3778 31.6565 26.1579 31.6646 26.938 31.6565C27.3632 31.6493 27.5533 31.8216 27.5533 32.2609C27.5466 36.7095 27.5466 41.1583 27.5533 45.6075C27.5533 46.0438 27.3713 46.2191 26.9431 46.211C26.1294 46.1967 25.3158 46.211 24.5021 46.2059C23.9346 46.2059 23.8349 46.1039 23.8339 45.5076C23.8284 43.3173 23.8267 41.1267 23.8288 38.9358Z" fill="#FCAF3B"/>
    <path d="M1.36747 40.7187C1.36747 39.1557 1.36747 37.5927 1.36747 36.0297C1.36747 35.3885 1.46918 35.2896 2.10282 35.2835C2.73647 35.2774 3.39046 35.2835 4.03529 35.2835C4.45331 35.2835 4.65368 35.4578 4.65266 35.8951C4.6452 39.1387 4.6452 42.3827 4.65266 45.627C4.65266 46.0347 4.47874 46.2172 4.06987 46.2111C3.42605 46.1999 2.78224 46.2111 2.13741 46.2111C1.44579 46.2111 1.37052 46.1377 1.36951 45.4598C1.36544 43.8791 1.36476 42.2988 1.36747 40.7187Z" fill="#FCAF3B"/>
    <path d="M4.65164 33.8737C4.51636 34.0989 4.31498 34.1713 4.05868 34.1683C3.35689 34.1591 2.65408 34.1632 1.95229 34.1683C1.72141 34.1683 1.52003 34.1214 1.40103 33.8991L1.34509 33.7921C1.49562 33.1316 1.36747 32.4598 1.41731 31.7952C1.62833 31.691 1.86299 31.6442 2.09774 31.6596C2.94904 31.6749 3.80034 31.683 4.65164 31.6953C4.65774 32.3898 4.66316 33.0847 4.66791 33.7799C4.65856 33.8103 4.65309 33.8418 4.65164 33.8737Z" fill="#FCAF3B"/>
    <path d="M1.41729 31.7928C1.36745 32.4574 1.49561 33.1292 1.34406 33.7897C0.98503 33.7826 0.623965 33.7999 0.273071 33.7L0.18255 33.6093C0.196994 33.5612 0.192103 33.5093 0.168922 33.4647C0.145741 33.4202 0.106104 33.3864 0.0584659 33.3708C-0.0432425 32.9182 0.0177825 32.4594 0.0218508 32.0038C0.0218508 31.7907 0.130679 31.5471 0.326976 31.5135C0.860945 31.4197 0.803989 31.0517 0.786699 30.6806C0.787053 30.5958 0.792487 30.511 0.802972 30.4268C0.933158 30.3249 0.90468 30.1934 0.863997 30.0609L0.965705 29.7275C1.01135 29.7319 1.05495 29.7487 1.09186 29.776C1.12876 29.8032 1.15757 29.8401 1.17522 29.8825C0.968757 30.5563 1.02978 31.1954 1.41729 31.7928Z" fill="#FD6643"/>
    <path d="M4.66786 33.7777C4.66312 33.0825 4.65769 32.3873 4.65159 31.6921C4.59972 31.4617 4.78076 31.422 4.92722 31.3526C5.18353 30.9398 5.14691 30.53 4.91705 30.1212L4.80924 29.7828C5.00045 29.7013 5.00045 29.7013 5.09097 30.0784C5.37372 30.4413 5.22726 30.8572 5.23642 31.2538C5.24862 31.6014 5.54154 31.4719 5.71343 31.532C5.76838 31.5544 5.81659 31.5906 5.85333 31.6373C5.89006 31.6839 5.91405 31.7393 5.92295 31.7981C5.86941 32.3446 5.8718 32.8953 5.93007 33.4413C5.9153 33.5409 5.8668 33.6323 5.79271 33.7002C5.71863 33.7682 5.62348 33.8085 5.52323 33.8144L4.66786 33.7777Z" fill="#FD6643"/>
    <path d="M5.09301 30.0786C5.00249 29.7014 5.00249 29.7014 4.81128 29.783C4.36478 29.0908 3.79419 28.6178 2.90933 28.6617C2.07328 28.7055 1.55966 29.1989 1.17316 29.8798C1.15477 29.8379 1.12539 29.8017 1.08814 29.7751C1.0509 29.7486 1.00717 29.7326 0.961609 29.729C1.22809 28.8452 2.14346 28.258 3.16055 28.312C4.11966 28.363 5.01673 29.0939 5.17234 29.9491C5.18353 30.0185 5.19472 30.0837 5.09301 30.0786Z" fill="#FD6643"/>
    <path d="M5.93009 33.4415C5.87181 32.8955 5.86943 32.3449 5.92297 31.7983C6.10577 32.3304 6.10827 32.908 5.93009 33.4415Z" fill="#FD6643"/>
    <path d="M0.273071 33.7041C0.623966 33.806 0.985031 33.7867 1.34406 33.7938C1.36339 33.8295 1.38271 33.8652 1.40102 33.9008C1.01351 33.8978 0.599556 34.0527 0.273071 33.7041Z" fill="#FD6643"/>
    <path d="M4.66788 33.7778L5.52732 33.8145C5.24762 34.0092 4.94758 33.9165 4.65161 33.8737C4.65289 33.8411 4.65836 33.8089 4.66788 33.7778Z" fill="#FD6643"/>
    <path d="M5.71347 31.5322C5.53649 31.472 5.24866 31.6015 5.23645 31.2539C5.36867 31.3936 5.61379 31.3385 5.71347 31.5322Z" fill="#FD6643"/>
    <path d="M0.863989 30.061C0.908741 30.1936 0.933151 30.323 0.802964 30.427C0.76916 30.3684 0.756761 30.2998 0.767896 30.233C0.779031 30.1663 0.813005 30.1054 0.863989 30.061Z" fill="#FD6643"/>
    <path d="M0.0584656 33.3711C0.106103 33.3868 0.14574 33.4205 0.168922 33.4651C0.192103 33.5096 0.196994 33.5615 0.18255 33.6096C0.158252 33.603 0.135589 33.5913 0.11598 33.5755C0.0963707 33.5596 0.0802378 33.5399 0.0685905 33.5175C0.0569431 33.4951 0.050032 33.4705 0.0482898 33.4453C0.0465476 33.4202 0.0500118 33.3949 0.0584656 33.3711Z" fill="#FD6643"/>
    <path d="M42.6092 12.4762C44.3571 12.487 46.03 13.1892 47.2638 14.4302C48.4976 15.6711 49.1924 17.3502 49.1969 19.1021C49.1969 22.7402 46.1863 25.7371 42.5472 25.728C38.9426 25.7229 35.9717 22.7208 35.9738 19.0858C35.9736 18.2143 36.1454 17.3514 36.4793 16.5468C36.8133 15.7421 37.3027 15.0116 37.9194 14.3973C38.5361 13.783 39.268 13.297 40.0729 12.9673C40.8777 12.6376 41.7397 12.4707 42.6092 12.4762ZM42.6092 13.1898C41.499 13.1607 40.4083 13.4863 39.4949 14.1194C37.9266 15.1959 37.0895 16.7045 36.943 18.5965C36.8881 19.2927 37.3214 19.6852 37.9194 19.5078C38.3314 19.3865 38.4097 19.0674 38.4412 18.678C38.6314 16.3539 40.3838 14.677 42.5919 14.6862C44.8 14.6954 46.524 16.3722 46.7081 18.6556C46.7579 19.2754 47.0224 19.5628 47.5217 19.5384C48.0211 19.5139 48.2337 19.202 48.2042 18.5598C48.0852 15.624 45.5567 13.1969 42.6113 13.1898H42.6092Z" fill="#FBFBFB"/>
    <path d="M31.2321 19.1061C31.2321 22.7422 28.2571 25.732 24.6444 25.732C21.0124 25.732 17.9988 22.7442 18.0253 19.0796C18.0537 15.0918 21.342 12.4343 24.675 12.4731C26.4208 12.4855 28.0907 13.1902 29.3195 14.4332C30.5482 15.6762 31.2359 17.3563 31.2321 19.1061ZM24.6719 13.1938C23.5816 13.1938 22.6428 13.4231 21.7295 14.0093C20.0147 15.1143 19.0912 16.6943 19.0078 18.7452C18.9884 19.2345 19.2397 19.5077 19.6709 19.5373C20.1255 19.5689 20.4317 19.3049 20.4917 18.8237C20.508 18.6892 20.5059 18.5526 20.5192 18.416C20.8243 15.4425 24.0464 13.7493 26.64 15.2152C27.9825 15.9736 28.668 17.1713 28.7677 18.7045C28.7931 19.1 28.9142 19.4017 29.3261 19.5087C29.8875 19.6555 30.2801 19.3049 30.272 18.6596C30.2343 15.7208 27.6581 13.2019 24.6709 13.1907L24.6719 13.1938Z" fill="#FBFBFB"/>
    <path d="M4.92722 31.353C4.92316 30.9452 4.91977 30.5348 4.91705 30.1216C5.14691 30.5304 5.18353 30.9401 4.92722 31.353Z" fill="#FD6643"/>
    <path d="M42.6113 13.1898C45.5608 13.1969 48.0852 15.624 48.2053 18.5598C48.2317 19.202 48.014 19.514 47.5228 19.5384C47.0315 19.5629 46.759 19.2754 46.7091 18.6556C46.525 16.3723 44.7858 14.6944 42.593 14.6862C40.4001 14.6781 38.6324 16.3539 38.4423 18.6781C38.4107 19.0675 38.3324 19.3865 37.9205 19.5078C37.3224 19.6852 36.8892 19.2927 36.9441 18.5965C37.0905 16.7046 37.9276 15.1959 39.496 14.1195C40.4097 13.4861 41.5007 13.1605 42.6113 13.1898Z" fill="#FD6643"/>
    <path d="M24.6709 13.1905C27.6581 13.2017 30.2344 15.7206 30.271 18.6645C30.2791 19.3047 29.8865 19.6604 29.3251 19.5136C28.9132 19.4117 28.7922 19.1059 28.7667 18.7094C28.665 17.1803 27.9815 15.9785 26.639 15.2201C24.0454 13.7542 20.8263 15.4474 20.5182 18.4209C20.5049 18.5554 20.507 18.692 20.4907 18.8286C20.4307 19.3067 20.1246 19.5707 19.6699 19.5422C19.2387 19.5126 18.9875 19.2364 19.0068 18.7501C19.0902 16.6992 20.0137 15.1192 21.7285 14.0142C22.6418 13.4188 23.5806 13.1854 24.6709 13.1905Z" fill="#FD6643"/>
</svg>
