<svg width="19" height="22" viewBox="0 0 19 22" fill="none" xmlns="http://www.w3.org/2000/svg">
    <path d="M18.0994 17.3225L15.8632 14.07C15.0645 12.9083 13.3257 12.9919 12.6977 14.1935C12.2403 15.0212 11.1694 15.3298 10.3236 14.9704C8.45402 14.1174 6.27947 11.079 6.1705 8.92994C6.03979 7.99333 6.80936 7.12207 7.74593 6.99139C9.09271 6.83525 9.79328 5.24159 8.99461 4.07997L6.75834 0.827415C6.10126 -0.00387156 4.92508 -0.221646 4.11194 0.337423L1.90485 1.85489C-0.320386 3.47038 0.776088 9.04627 4.52983 14.5059C8.28358 19.9656 13.0791 23.0838 15.4024 21.4864L17.6095 19.9689C18.4408 19.3118 18.6586 18.1357 18.0994 17.3225Z" fill="white"/>
</svg>
