<svg width="12" height="12" viewBox="0 0 12 12" fill="none" xmlns="http://www.w3.org/2000/svg">
    <path d="M4.9695 7.03068C4.19269 6.3003 3.67865 5.33395 3.50714 4.28159C3.49914 4.21898 3.50565 4.15537 3.52617 4.09569C3.5467 4.036 3.58069 3.98184 3.6255 3.9374L4.55278 3.01013C4.61898 2.94394 4.6608 2.85725 4.6714 2.76423C4.682 2.67121 4.66076 2.57734 4.61114 2.49795L3.13459 0.20704C3.08021 0.119476 2.99511 0.0553508 2.89595 0.027206C2.79678 -0.00093883 2.69069 0.00892143 2.59841 0.0548583L0.230048 1.17195C0.15475 1.20891 0.0925538 1.26801 0.0518011 1.34133C0.0110485 1.41464 -0.00631195 1.49867 0.00204808 1.58213C0.323307 4.22653 1.55643 6.67619 3.48914 8.5094C5.32219 10.4423 7.77194 11.6755 10.4164 11.9965C10.5 12.0051 10.5842 11.988 10.6577 11.9473C10.7313 11.9066 10.7906 11.8444 10.8277 11.769L11.9437 9.40013C11.9893 9.30828 11.9993 9.20275 11.9716 9.10399C11.9439 9.00523 11.8805 8.92027 11.7937 8.86559L9.50278 7.39286C9.42344 7.34317 9.32961 7.32184 9.23659 7.33234C9.14357 7.34284 9.05686 7.38455 8.99059 7.45068L8.06332 8.37795C8.01888 8.42277 7.96472 8.45675 7.90504 8.47728C7.84535 8.4978 7.78174 8.50432 7.71914 8.49631C6.66658 8.32492 5.70002 7.81087 4.9695 7.03395V7.03068Z" fill="white"/>
    <path d="M9.51741 6.41391C9.4077 6.41391 9.30248 6.37037 9.22486 6.29285C9.14723 6.21532 9.10355 6.11016 9.10341 6.00046C9.10196 5.17786 8.77459 4.38936 8.19297 3.80764C7.61136 3.22592 6.82291 2.89841 6.00031 2.89682C5.94472 2.89884 5.88929 2.88963 5.83733 2.86975C5.78537 2.84987 5.73795 2.81972 5.69791 2.7811C5.65786 2.74248 5.62601 2.69619 5.60426 2.64499C5.5825 2.59379 5.57129 2.53872 5.57129 2.48309C5.57129 2.42746 5.5825 2.3724 5.60426 2.3212C5.62601 2.26999 5.65786 2.2237 5.69791 2.18508C5.73795 2.14647 5.78537 2.11632 5.83733 2.09643C5.88929 2.07655 5.94472 2.06735 6.00031 2.06936C7.0425 2.07052 8.04166 2.48508 8.77855 3.22206C9.51543 3.95905 9.92985 4.95827 9.93086 6.00046C9.93072 6.11007 9.88711 6.21515 9.8096 6.29265C9.7321 6.37016 9.62702 6.41377 9.51741 6.41391Z" fill="white"/>
    <path d="M11.5858 6.41416C11.4762 6.41401 11.3711 6.37041 11.2936 6.2929C11.2161 6.21539 11.1725 6.11031 11.1723 6.0007C11.1707 4.62949 10.6253 3.3149 9.65572 2.3453C8.68612 1.37571 7.37153 0.830292 6.00031 0.828704C5.94472 0.830723 5.88929 0.821516 5.83733 0.801634C5.78537 0.781751 5.73795 0.751601 5.69791 0.712983C5.65786 0.674366 5.62601 0.628074 5.60426 0.576872C5.5825 0.52567 5.57129 0.470609 5.57129 0.414977C5.57129 0.359345 5.5825 0.304283 5.60426 0.253081C5.62601 0.201879 5.65786 0.155587 5.69791 0.11697C5.73795 0.0783523 5.78537 0.0482019 5.83733 0.0283195C5.88929 0.00843702 5.94472 -0.000769677 6.00031 0.00124931C7.59108 0.00298185 9.1162 0.635679 10.241 1.76052C11.3659 2.88537 11.9986 4.41048 12.0003 6.00125C12.0003 6.05562 11.9896 6.10945 11.9688 6.15968C11.948 6.20991 11.9175 6.25555 11.8791 6.29399C11.8406 6.33244 11.795 6.36293 11.7447 6.38374C11.6945 6.40454 11.6407 6.41525 11.5863 6.41525L11.5858 6.41416Z" fill="white"/>
</svg>
