<svg width="19" height="15" viewBox="0 0 19 15" fill="none" xmlns="http://www.w3.org/2000/svg">
    <path d="M18.2773 4.20627V13.1161C18.2773 13.5099 18.1025 13.8876 17.7914 14.1662C17.4802 14.4447 17.0582 14.6013 16.6181 14.6015H2.23429C1.79401 14.6015 1.37176 14.445 1.06044 14.1664C0.749118 13.8879 0.574219 13.5101 0.574219 13.1161V4.20627C0.574219 3.81233 0.749118 3.43453 1.06044 3.15598C1.37176 2.87742 1.79401 2.72093 2.23429 2.72093H5.27681L5.70249 1.70287C5.82097 1.42048 6.03287 1.17712 6.30992 1.00526C6.58697 0.833394 6.916 0.741198 7.25312 0.740967H11.5928C11.9302 0.740905 12.2596 0.832965 12.5369 1.00485C12.8143 1.17673 13.0265 1.42025 13.145 1.70287L13.5739 2.72093H16.6165C16.8345 2.72084 17.0505 2.75919 17.252 2.83379C17.4535 2.90839 17.6366 3.01779 17.7908 3.15572C17.9451 3.29366 18.0674 3.45743 18.1509 3.63769C18.2344 3.81794 18.2773 4.01115 18.2773 4.20627ZM13.5747 8.66155C13.5749 7.92731 13.3317 7.20951 12.8759 6.59894C12.4201 5.98836 11.7722 5.51244 11.0141 5.23136C10.256 4.95028 9.42172 4.87666 8.61684 5.01982C7.81197 5.16297 7.07262 5.51648 6.4923 6.03562C5.91197 6.55476 5.51674 7.21622 5.35659 7.93634C5.19643 8.65647 5.27855 9.40292 5.59255 10.0813C5.90655 10.7597 6.43834 11.3395 7.12065 11.7474C7.80296 12.1554 8.60515 12.3731 9.42577 12.3731C10.5259 12.3723 11.5807 11.981 12.3586 11.285C13.1365 10.5889 13.5739 9.64587 13.5747 8.66155ZM12.4683 8.66155C12.4681 9.19994 12.2896 9.72619 11.9551 10.1738C11.6207 10.6214 11.1455 10.9702 10.5895 11.1761C10.0336 11.382 9.42185 11.4358 8.83171 11.3307C8.24157 11.2256 7.69952 10.9663 7.2741 10.5855C6.84868 10.2048 6.55899 9.71971 6.44165 9.19166C6.32432 8.66361 6.38462 8.11629 6.61493 7.6189C6.84523 7.12151 7.2352 6.69639 7.73552 6.39729C8.23585 6.0982 8.82405 5.93856 9.42577 5.93856C10.2323 5.9397 11.0054 6.22688 11.5757 6.73716C12.1461 7.24743 12.467 7.93991 12.4683 8.66155Z" fill="#000E43"/>
</svg>
