<svg width="24" height="24" viewBox="0 0 24 24" fill="none" xmlns="http://www.w3.org/2000/svg">
    <path d="M10.5039 9.75195L14.4073 12.0001L10.5039 14.2483V9.75195Z" fill="white"/>
    <path d="M12 24C5.3736 24 0 18.6264 0 12C0 5.3736 5.3736 0 12 0C18.6264 0 24 5.3736 24 12C24 18.6264 18.6264 24 12 24ZM19.4982 11.9877C19.4982 11.9877 19.4982 9.55408 19.1895 8.38055C19.0164 7.73822 18.5099 7.23175 17.8676 7.0589C16.6941 6.75 12 6.75 12 6.75C12 6.75 7.31818 6.75 6.13239 7.07117C5.49005 7.24402 4.98358 7.75067 4.81055 8.39301C4.50165 9.55408 4.50165 12 4.50165 12C4.50165 12 4.50165 14.4335 4.81055 15.607C4.9834 16.2493 5.50232 16.7682 6.13239 16.9411C7.30591 17.25 12 17.25 12 17.25C12 17.25 16.6941 17.25 17.8676 16.9288C18.5099 16.756 19.0164 16.2493 19.1895 15.607C19.5106 14.4335 19.4982 11.9877 19.4982 11.9877V11.9877Z" fill="white"/>
</svg>
