<svg width="39" height="39" viewBox="0 0 39 39" fill="none" xmlns="http://www.w3.org/2000/svg">
    <path d="M17.0752 15.7186L23.367 19.3423L17.0752 22.9661V15.7186Z" fill="#02B470"/>
    <path d="M19.4868 38.6846C8.80601 38.6846 0.144531 30.0231 0.144531 19.3423C0.144531 8.66142 8.80601 -6.48499e-05 19.4868 -6.48499e-05C30.1677 -6.48499e-05 38.8292 8.66142 38.8292 19.3423C38.8292 30.0231 30.1677 38.6846 19.4868 38.6846ZM31.5728 19.3225C31.5728 19.3225 31.5728 15.3998 31.0752 13.5082C30.7963 12.4729 29.98 11.6565 28.9446 11.3779C27.0531 10.88 19.4868 10.88 19.4868 10.88C19.4868 10.88 11.9404 10.88 10.0291 11.3977C8.99372 11.6763 8.17737 12.4929 7.89846 13.5283C7.40056 15.3998 7.40056 19.3423 7.40056 19.3423C7.40056 19.3423 7.40056 23.2647 7.89846 25.1562C8.17707 26.1916 9.0135 27.028 10.0291 27.3066C11.9206 27.8045 19.4868 27.8045 19.4868 27.8045C19.4868 27.8045 27.0531 27.8045 28.9446 27.2868C29.98 27.0082 30.7963 26.1916 31.0752 25.1562C31.5929 23.2647 31.5728 19.3225 31.5728 19.3225V19.3225Z" fill="#02B470"/>
</svg>
